<mxfile host="app.diagrams.net" agent="Mozilla/5.0 (Windows NT 10.0; Win64; x64) AppleWebKit/537.36 (KHTML, like Gecko) Chrome/128.0.0.0 Safari/537.36" version="24.7.10">
  <diagram name="Page-1" id="Oa3FeAlQ48N_21bmFxDf">
    <mxGraphModel dx="1727" dy="858" grid="1" gridSize="10" guides="1" tooltips="1" connect="1" arrows="1" fold="1" page="1" pageScale="1" pageWidth="827" pageHeight="1169" math="0" shadow="0">
      <root>
        <mxCell id="0" />
        <mxCell id="1" parent="0" />
        <mxCell id="3D3uOkxjJM6zMwOeEdYa-2" value="&lt;font style=&quot;font-size: 20px;&quot;&gt;Gantt Chart&lt;/font&gt;" style="text;html=1;align=center;verticalAlign=middle;whiteSpace=wrap;rounded=0;fontStyle=1;fontSize=20;" parent="1" vertex="1">
          <mxGeometry x="10" y="50" width="180" height="30" as="geometry" />
        </mxCell>
        <mxCell id="PuGfcK8MTrgiTfCDIWmC-1" value="DFD&amp;nbsp; level 0" style="rounded=0;whiteSpace=wrap;html=1;fontStyle=1;fontSize=13;" parent="1" vertex="1">
          <mxGeometry x="40" y="400" width="120" height="40" as="geometry" />
        </mxCell>
        <mxCell id="PuGfcK8MTrgiTfCDIWmC-2" value="Usecase Diagram" style="rounded=0;whiteSpace=wrap;html=1;fontStyle=1;fontSize=13;" parent="1" vertex="1">
          <mxGeometry x="40" y="350" width="120" height="40" as="geometry" />
        </mxCell>
        <mxCell id="PuGfcK8MTrgiTfCDIWmC-3" value="Architecture Diagram" style="rounded=0;whiteSpace=wrap;html=1;fontStyle=1;fontSize=13;" parent="1" vertex="1">
          <mxGeometry x="40" y="300" width="120" height="40" as="geometry" />
        </mxCell>
        <mxCell id="PuGfcK8MTrgiTfCDIWmC-4" value="Literature Servey" style="rounded=0;whiteSpace=wrap;html=1;fontStyle=1;fontSize=13;" parent="1" vertex="1">
          <mxGeometry x="40" y="250" width="120" height="40" as="geometry" />
        </mxCell>
        <mxCell id="PuGfcK8MTrgiTfCDIWmC-5" value="Topic Selection" style="rounded=0;whiteSpace=wrap;html=1;fontStyle=1;fontSize=13;" parent="1" vertex="1">
          <mxGeometry x="40" y="200" width="120" height="40" as="geometry" />
        </mxCell>
        <mxCell id="PuGfcK8MTrgiTfCDIWmC-6" value="Report Generation" style="rounded=0;whiteSpace=wrap;html=1;fontStyle=1;fontSize=13;" parent="1" vertex="1">
          <mxGeometry x="40" y="650" width="120" height="40" as="geometry" />
        </mxCell>
        <mxCell id="PuGfcK8MTrgiTfCDIWmC-7" value="Module Division" style="rounded=0;whiteSpace=wrap;html=1;fontStyle=1;fontSize=13;" parent="1" vertex="1">
          <mxGeometry x="40" y="600" width="120" height="40" as="geometry" />
        </mxCell>
        <mxCell id="PuGfcK8MTrgiTfCDIWmC-8" value="Sequencial Diagram" style="rounded=0;whiteSpace=wrap;html=1;fontStyle=1;fontSize=13;" parent="1" vertex="1">
          <mxGeometry x="40" y="550" width="120" height="40" as="geometry" />
        </mxCell>
        <mxCell id="PuGfcK8MTrgiTfCDIWmC-9" value="DFD level 1" style="rounded=0;whiteSpace=wrap;html=1;fontStyle=1;fontSize=13;" parent="1" vertex="1">
          <mxGeometry x="40" y="450" width="120" height="40" as="geometry" />
        </mxCell>
        <mxCell id="PuGfcK8MTrgiTfCDIWmC-10" value="DFD level 2" style="rounded=0;whiteSpace=wrap;html=1;fontStyle=1;fontSize=13;" parent="1" vertex="1">
          <mxGeometry x="40" y="500" width="120" height="40" as="geometry" />
        </mxCell>
        <mxCell id="PuGfcK8MTrgiTfCDIWmC-24" value="28 days" style="rounded=0;whiteSpace=wrap;html=1;fontStyle=1" parent="1" vertex="1">
          <mxGeometry x="860" y="650" width="240" height="40" as="geometry" />
        </mxCell>
        <mxCell id="PuGfcK8MTrgiTfCDIWmC-25" value="7 days" style="rounded=0;whiteSpace=wrap;html=1;fontStyle=1" parent="1" vertex="1">
          <mxGeometry x="800" y="600" width="60" height="40" as="geometry" />
        </mxCell>
        <mxCell id="PuGfcK8MTrgiTfCDIWmC-26" value="7 days" style="rounded=0;whiteSpace=wrap;html=1;fontStyle=1" parent="1" vertex="1">
          <mxGeometry x="740" y="550" width="60" height="40" as="geometry" />
        </mxCell>
        <mxCell id="PuGfcK8MTrgiTfCDIWmC-27" value="6 days" style="rounded=0;whiteSpace=wrap;html=1;fontStyle=1" parent="1" vertex="1">
          <mxGeometry x="690" y="500" width="50" height="40" as="geometry" />
        </mxCell>
        <mxCell id="PuGfcK8MTrgiTfCDIWmC-28" value="&lt;font style=&quot;font-size: 11px;&quot;&gt;4 days&lt;/font&gt;" style="rounded=0;whiteSpace=wrap;html=1;fontStyle=1" parent="1" vertex="1">
          <mxGeometry x="650" y="450" width="40" height="40" as="geometry" />
        </mxCell>
        <mxCell id="PuGfcK8MTrgiTfCDIWmC-29" value="&lt;font style=&quot;font-size: 10px;&quot;&gt;1 day&lt;/font&gt;" style="rounded=0;whiteSpace=wrap;html=1;fontStyle=1" parent="1" vertex="1">
          <mxGeometry x="630" y="400" width="20" height="40" as="geometry" />
        </mxCell>
        <mxCell id="PuGfcK8MTrgiTfCDIWmC-30" value="5 days" style="rounded=0;whiteSpace=wrap;html=1;fontStyle=1" parent="1" vertex="1">
          <mxGeometry x="590" y="350" width="40" height="40" as="geometry" />
        </mxCell>
        <mxCell id="PuGfcK8MTrgiTfCDIWmC-31" value="14 days" style="rounded=0;whiteSpace=wrap;html=1;fontStyle=1" parent="1" vertex="1">
          <mxGeometry x="470" y="300" width="120" height="40" as="geometry" />
        </mxCell>
        <mxCell id="PuGfcK8MTrgiTfCDIWmC-32" value="14 days" style="rounded=0;whiteSpace=wrap;html=1;fontStyle=1" parent="1" vertex="1">
          <mxGeometry x="350" y="250" width="120" height="40" as="geometry" />
        </mxCell>
        <mxCell id="PuGfcK8MTrgiTfCDIWmC-33" value="19 days" style="rounded=0;whiteSpace=wrap;html=1;fontStyle=1" parent="1" vertex="1">
          <mxGeometry x="200" y="200" width="150" height="40" as="geometry" />
        </mxCell>
        <mxCell id="PuGfcK8MTrgiTfCDIWmC-49" value="WEEK 15" style="rounded=0;whiteSpace=wrap;html=1;fontStyle=1;fontSize=12;" parent="1" vertex="1">
          <mxGeometry x="1040" y="120" width="60" height="40" as="geometry" />
        </mxCell>
        <mxCell id="PuGfcK8MTrgiTfCDIWmC-50" value="WEEK 14" style="rounded=0;whiteSpace=wrap;html=1;fontStyle=1;fontSize=12;" parent="1" vertex="1">
          <mxGeometry x="980" y="120" width="60" height="40" as="geometry" />
        </mxCell>
        <mxCell id="PuGfcK8MTrgiTfCDIWmC-51" value="WEEK 13" style="rounded=0;whiteSpace=wrap;html=1;fontStyle=1;fontSize=12;" parent="1" vertex="1">
          <mxGeometry x="920" y="120" width="60" height="40" as="geometry" />
        </mxCell>
        <mxCell id="PuGfcK8MTrgiTfCDIWmC-52" value="WEEK 12" style="rounded=0;whiteSpace=wrap;html=1;fontStyle=1;fontSize=12;" parent="1" vertex="1">
          <mxGeometry x="860" y="120" width="60" height="40" as="geometry" />
        </mxCell>
        <mxCell id="PuGfcK8MTrgiTfCDIWmC-53" value="WEEK 10" style="rounded=0;whiteSpace=wrap;html=1;fontStyle=1;fontSize=12;" parent="1" vertex="1">
          <mxGeometry x="740" y="120" width="60" height="40" as="geometry" />
        </mxCell>
        <mxCell id="PuGfcK8MTrgiTfCDIWmC-54" value="WEEK 9" style="rounded=0;whiteSpace=wrap;html=1;fontStyle=1;fontSize=13;" parent="1" vertex="1">
          <mxGeometry x="680" y="120" width="60" height="40" as="geometry" />
        </mxCell>
        <mxCell id="PuGfcK8MTrgiTfCDIWmC-55" value="WEEK 8" style="rounded=0;whiteSpace=wrap;html=1;fontStyle=1;fontSize=13;" parent="1" vertex="1">
          <mxGeometry x="620" y="120" width="60" height="40" as="geometry" />
        </mxCell>
        <mxCell id="PuGfcK8MTrgiTfCDIWmC-56" value="WEEK 7" style="rounded=0;whiteSpace=wrap;html=1;fontStyle=1;fontSize=13;" parent="1" vertex="1">
          <mxGeometry x="560" y="120" width="60" height="40" as="geometry" />
        </mxCell>
        <mxCell id="PuGfcK8MTrgiTfCDIWmC-57" value="WEEK 6" style="rounded=0;whiteSpace=wrap;html=1;fontStyle=1;fontSize=13;" parent="1" vertex="1">
          <mxGeometry x="500" y="120" width="60" height="40" as="geometry" />
        </mxCell>
        <mxCell id="PuGfcK8MTrgiTfCDIWmC-58" value="WEEK 5" style="rounded=0;whiteSpace=wrap;html=1;fontStyle=1;fontSize=13;" parent="1" vertex="1">
          <mxGeometry x="440" y="120" width="60" height="40" as="geometry" />
        </mxCell>
        <mxCell id="PuGfcK8MTrgiTfCDIWmC-59" value="WEEK 4" style="rounded=0;whiteSpace=wrap;html=1;fontStyle=1;fontSize=13;" parent="1" vertex="1">
          <mxGeometry x="380" y="120" width="60" height="40" as="geometry" />
        </mxCell>
        <mxCell id="PuGfcK8MTrgiTfCDIWmC-60" value="WEEK 3" style="rounded=0;whiteSpace=wrap;html=1;fontStyle=1;fontSize=13;" parent="1" vertex="1">
          <mxGeometry x="320" y="120" width="60" height="40" as="geometry" />
        </mxCell>
        <mxCell id="PuGfcK8MTrgiTfCDIWmC-61" value="WEEK 2" style="rounded=0;whiteSpace=wrap;html=1;fontStyle=1;fontSize=13;" parent="1" vertex="1">
          <mxGeometry x="260" y="120" width="60" height="40" as="geometry" />
        </mxCell>
        <mxCell id="PuGfcK8MTrgiTfCDIWmC-62" value="WEEK 1" style="rounded=0;whiteSpace=wrap;html=1;fontStyle=1;fontSize=13;" parent="1" vertex="1">
          <mxGeometry x="200" y="120" width="60" height="40" as="geometry" />
        </mxCell>
        <mxCell id="PuGfcK8MTrgiTfCDIWmC-63" value="WEEK 11" style="rounded=0;whiteSpace=wrap;html=1;fontStyle=1;fontSize=12;" parent="1" vertex="1">
          <mxGeometry x="800" y="120" width="60" height="40" as="geometry" />
        </mxCell>
        <mxCell id="PuGfcK8MTrgiTfCDIWmC-70" value="OCTOBER" style="rounded=0;whiteSpace=wrap;html=1;fontStyle=1;fontSize=13;" parent="1" vertex="1">
          <mxGeometry x="840" y="720" width="260" height="40" as="geometry" />
        </mxCell>
        <mxCell id="PuGfcK8MTrgiTfCDIWmC-71" value="SEPTEMBER" style="rounded=0;whiteSpace=wrap;html=1;fontStyle=1;fontSize=13;" parent="1" vertex="1">
          <mxGeometry x="580" y="720" width="260" height="40" as="geometry" />
        </mxCell>
        <mxCell id="PuGfcK8MTrgiTfCDIWmC-72" value="AUGUST" style="rounded=0;whiteSpace=wrap;html=1;fontStyle=1;fontSize=13;" parent="1" vertex="1">
          <mxGeometry x="320" y="720" width="260" height="40" as="geometry" />
        </mxCell>
        <mxCell id="PuGfcK8MTrgiTfCDIWmC-73" value="JULY" style="rounded=0;whiteSpace=wrap;html=1;fontStyle=1;fontSize=13;" parent="1" vertex="1">
          <mxGeometry x="200" y="720" width="120" height="40" as="geometry" />
        </mxCell>
        <mxCell id="PuGfcK8MTrgiTfCDIWmC-76" value="17" style="text;html=1;align=center;verticalAlign=middle;whiteSpace=wrap;rounded=0;fontStyle=1;fontSize=12;" parent="1" vertex="1">
          <mxGeometry x="160" y="690" width="60" height="30" as="geometry" />
        </mxCell>
        <mxCell id="PuGfcK8MTrgiTfCDIWmC-77" value="30" style="text;html=1;align=center;verticalAlign=middle;whiteSpace=wrap;rounded=0;fontStyle=1;fontSize=12;" parent="1" vertex="1">
          <mxGeometry x="1060" y="690" width="60" height="30" as="geometry" />
        </mxCell>
        <mxCell id="PuGfcK8MTrgiTfCDIWmC-79" value="9" style="text;html=1;align=center;verticalAlign=middle;whiteSpace=wrap;rounded=0;fontStyle=1;fontSize=12;" parent="1" vertex="1">
          <mxGeometry x="610" y="690" width="60" height="30" as="geometry" />
        </mxCell>
        <mxCell id="PuGfcK8MTrgiTfCDIWmC-80" value="" style="endArrow=none;dashed=1;html=1;strokeWidth=2;rounded=0;exitX=1;exitY=1;exitDx=0;exitDy=0;entryX=0.269;entryY=-0.02;entryDx=0;entryDy=0;entryPerimeter=0;fontStyle=1;dashPattern=1 2;" parent="1" source="PuGfcK8MTrgiTfCDIWmC-29" target="PuGfcK8MTrgiTfCDIWmC-71" edge="1">
          <mxGeometry width="50" height="50" relative="1" as="geometry">
            <mxPoint x="670" y="440" as="sourcePoint" />
            <mxPoint x="660" y="660" as="targetPoint" />
          </mxGeometry>
        </mxCell>
        <mxCell id="PuGfcK8MTrgiTfCDIWmC-82" value="" style="endArrow=none;dashed=1;html=1;strokeWidth=2;rounded=0;entryX=1;entryY=1;entryDx=0;entryDy=0;exitX=0.113;exitY=-0.002;exitDx=0;exitDy=0;exitPerimeter=0;fontStyle=1;dashPattern=1 2;" parent="1" source="PuGfcK8MTrgiTfCDIWmC-72" target="PuGfcK8MTrgiTfCDIWmC-33" edge="1">
          <mxGeometry width="50" height="50" relative="1" as="geometry">
            <mxPoint x="330" y="680" as="sourcePoint" />
            <mxPoint x="520" y="530" as="targetPoint" />
          </mxGeometry>
        </mxCell>
        <mxCell id="PuGfcK8MTrgiTfCDIWmC-83" value="5" style="text;html=1;align=center;verticalAlign=middle;whiteSpace=wrap;rounded=0;fontStyle=1;fontSize=12;" parent="1" vertex="1">
          <mxGeometry x="310" y="690" width="60" height="30" as="geometry" />
        </mxCell>
        <mxCell id="PuGfcK8MTrgiTfCDIWmC-84" value="" style="endArrow=none;dashed=1;html=1;strokeWidth=2;rounded=0;exitX=0;exitY=0;exitDx=0;exitDy=0;entryX=0;entryY=1;entryDx=0;entryDy=0;fontStyle=1;dashPattern=1 2;" parent="1" source="PuGfcK8MTrgiTfCDIWmC-73" target="PuGfcK8MTrgiTfCDIWmC-33" edge="1">
          <mxGeometry width="50" height="50" relative="1" as="geometry">
            <mxPoint x="250" y="700" as="sourcePoint" />
            <mxPoint x="220" y="280" as="targetPoint" />
          </mxGeometry>
        </mxCell>
        <mxCell id="PuGfcK8MTrgiTfCDIWmC-87" value="" style="endArrow=none;dashed=1;html=1;strokeWidth=2;rounded=0;entryX=1;entryY=1;entryDx=0;entryDy=0;exitX=0.572;exitY=0.021;exitDx=0;exitDy=0;exitPerimeter=0;fontStyle=1;dashPattern=1 2;" parent="1" source="PuGfcK8MTrgiTfCDIWmC-72" target="PuGfcK8MTrgiTfCDIWmC-32" edge="1">
          <mxGeometry width="50" height="50" relative="1" as="geometry">
            <mxPoint x="470" y="580" as="sourcePoint" />
            <mxPoint x="470" y="370" as="targetPoint" />
          </mxGeometry>
        </mxCell>
        <mxCell id="PuGfcK8MTrgiTfCDIWmC-88" value="" style="endArrow=none;dashed=1;html=1;strokeWidth=2;rounded=0;entryX=1;entryY=1;entryDx=0;entryDy=0;exitX=0.421;exitY=0;exitDx=0;exitDy=0;exitPerimeter=0;fontStyle=1;dashPattern=1 2;" parent="1" source="PuGfcK8MTrgiTfCDIWmC-71" target="PuGfcK8MTrgiTfCDIWmC-28" edge="1">
          <mxGeometry width="50" height="50" relative="1" as="geometry">
            <mxPoint x="800" y="580" as="sourcePoint" />
            <mxPoint x="850" y="530" as="targetPoint" />
          </mxGeometry>
        </mxCell>
        <mxCell id="PuGfcK8MTrgiTfCDIWmC-89" value="" style="endArrow=none;dashed=1;html=1;strokeWidth=2;rounded=0;entryX=1;entryY=1;entryDx=0;entryDy=0;exitX=0.19;exitY=-0.042;exitDx=0;exitDy=0;exitPerimeter=0;fontStyle=1;dashPattern=1 2;" parent="1" source="PuGfcK8MTrgiTfCDIWmC-71" target="PuGfcK8MTrgiTfCDIWmC-30" edge="1">
          <mxGeometry width="50" height="50" relative="1" as="geometry">
            <mxPoint x="800" y="580" as="sourcePoint" />
            <mxPoint x="850" y="530" as="targetPoint" />
          </mxGeometry>
        </mxCell>
        <mxCell id="PuGfcK8MTrgiTfCDIWmC-90" value="" style="endArrow=none;dashed=1;html=1;strokeWidth=2;rounded=0;exitX=1;exitY=1;exitDx=0;exitDy=0;entryX=0.038;entryY=0;entryDx=0;entryDy=0;entryPerimeter=0;fontStyle=1;dashPattern=1 2;" parent="1" source="PuGfcK8MTrgiTfCDIWmC-31" target="PuGfcK8MTrgiTfCDIWmC-71" edge="1">
          <mxGeometry width="50" height="50" relative="1" as="geometry">
            <mxPoint x="740" y="650" as="sourcePoint" />
            <mxPoint x="790" y="600" as="targetPoint" />
          </mxGeometry>
        </mxCell>
        <mxCell id="PuGfcK8MTrgiTfCDIWmC-91" value="" style="endArrow=none;dashed=1;html=1;strokeWidth=2;rounded=0;entryX=1;entryY=1;entryDx=0;entryDy=0;exitX=0.617;exitY=-0.021;exitDx=0;exitDy=0;exitPerimeter=0;fontStyle=1;dashPattern=1 2;" parent="1" source="PuGfcK8MTrgiTfCDIWmC-71" target="PuGfcK8MTrgiTfCDIWmC-27" edge="1">
          <mxGeometry width="50" height="50" relative="1" as="geometry">
            <mxPoint x="740" y="650" as="sourcePoint" />
            <mxPoint x="790" y="600" as="targetPoint" />
          </mxGeometry>
        </mxCell>
        <mxCell id="PuGfcK8MTrgiTfCDIWmC-92" value="" style="endArrow=none;dashed=1;html=1;strokeWidth=2;rounded=0;entryX=1;entryY=1;entryDx=0;entryDy=0;exitX=0.838;exitY=-0.062;exitDx=0;exitDy=0;exitPerimeter=0;fontStyle=1;dashPattern=1 2;" parent="1" source="PuGfcK8MTrgiTfCDIWmC-71" target="PuGfcK8MTrgiTfCDIWmC-26" edge="1">
          <mxGeometry width="50" height="50" relative="1" as="geometry">
            <mxPoint x="750" y="660" as="sourcePoint" />
            <mxPoint x="800" y="610" as="targetPoint" />
          </mxGeometry>
        </mxCell>
        <mxCell id="PuGfcK8MTrgiTfCDIWmC-93" value="" style="endArrow=none;dashed=1;html=1;strokeWidth=2;rounded=0;exitX=0.072;exitY=0;exitDx=0;exitDy=0;exitPerimeter=0;entryX=1;entryY=1;entryDx=0;entryDy=0;fontStyle=1;dashPattern=1 2;" parent="1" source="PuGfcK8MTrgiTfCDIWmC-70" target="PuGfcK8MTrgiTfCDIWmC-25" edge="1">
          <mxGeometry width="50" height="50" relative="1" as="geometry">
            <mxPoint x="760" y="670" as="sourcePoint" />
            <mxPoint x="810" y="620" as="targetPoint" />
          </mxGeometry>
        </mxCell>
        <mxCell id="PuGfcK8MTrgiTfCDIWmC-94" value="" style="endArrow=none;dashed=1;html=1;strokeWidth=2;rounded=0;entryX=1;entryY=1;entryDx=0;entryDy=0;exitX=1;exitY=0;exitDx=0;exitDy=0;fontStyle=1;fontSize=12;dashPattern=1 2;" parent="1" source="PuGfcK8MTrgiTfCDIWmC-70" target="PuGfcK8MTrgiTfCDIWmC-24" edge="1">
          <mxGeometry width="50" height="50" relative="1" as="geometry">
            <mxPoint x="770" y="680" as="sourcePoint" />
            <mxPoint x="820" y="630" as="targetPoint" />
          </mxGeometry>
        </mxCell>
        <mxCell id="PuGfcK8MTrgiTfCDIWmC-96" value="19" style="text;html=1;align=center;verticalAlign=middle;whiteSpace=wrap;rounded=0;fontStyle=1;fontSize=12;" parent="1" vertex="1">
          <mxGeometry x="700" y="690" width="60" height="30" as="geometry" />
        </mxCell>
        <mxCell id="PuGfcK8MTrgiTfCDIWmC-97" value="13" style="text;html=1;align=center;verticalAlign=middle;whiteSpace=wrap;rounded=0;fontStyle=1;fontSize=12;" parent="1" vertex="1">
          <mxGeometry x="650" y="690" width="60" height="30" as="geometry" />
        </mxCell>
        <mxCell id="PuGfcK8MTrgiTfCDIWmC-98" value="7" style="text;html=1;align=center;verticalAlign=middle;whiteSpace=wrap;rounded=0;fontStyle=1;fontSize=12;" parent="1" vertex="1">
          <mxGeometry x="590" y="690" width="60" height="30" as="geometry" />
        </mxCell>
        <mxCell id="PuGfcK8MTrgiTfCDIWmC-99" value="2" style="text;html=1;align=center;verticalAlign=middle;whiteSpace=wrap;rounded=0;fontStyle=1;fontSize=12;" parent="1" vertex="1">
          <mxGeometry x="550" y="690" width="60" height="30" as="geometry" />
        </mxCell>
        <mxCell id="PuGfcK8MTrgiTfCDIWmC-100" value="19" style="text;html=1;align=center;verticalAlign=middle;whiteSpace=wrap;rounded=0;fontStyle=1;fontSize=12;" parent="1" vertex="1">
          <mxGeometry x="430" y="690" width="60" height="30" as="geometry" />
        </mxCell>
        <mxCell id="PuGfcK8MTrgiTfCDIWmC-102" value="3" style="text;html=1;align=center;verticalAlign=middle;whiteSpace=wrap;rounded=0;fontStyle=1;fontSize=12;" parent="1" vertex="1">
          <mxGeometry x="820" y="690" width="60" height="30" as="geometry" />
        </mxCell>
        <mxCell id="PuGfcK8MTrgiTfCDIWmC-103" value="26" style="text;html=1;align=center;verticalAlign=middle;whiteSpace=wrap;rounded=0;fontStyle=1;fontSize=12;" parent="1" vertex="1">
          <mxGeometry x="760" y="690" width="60" height="30" as="geometry" />
        </mxCell>
        <mxCell id="PuGfcK8MTrgiTfCDIWmC-105" value="" style="endArrow=none;html=1;rounded=0;exitX=1;exitY=0.5;exitDx=0;exitDy=0;entryX=0;entryY=0.5;entryDx=0;entryDy=0;fontStyle=1" parent="1" source="PuGfcK8MTrgiTfCDIWmC-5" target="PuGfcK8MTrgiTfCDIWmC-33" edge="1">
          <mxGeometry width="50" height="50" relative="1" as="geometry">
            <mxPoint x="190" y="180" as="sourcePoint" />
            <mxPoint x="170" y="190" as="targetPoint" />
          </mxGeometry>
        </mxCell>
        <mxCell id="PuGfcK8MTrgiTfCDIWmC-106" value="" style="endArrow=none;html=1;rounded=0;exitX=1;exitY=0.5;exitDx=0;exitDy=0;entryX=0;entryY=0.5;entryDx=0;entryDy=0;fontStyle=1" parent="1" source="PuGfcK8MTrgiTfCDIWmC-4" target="PuGfcK8MTrgiTfCDIWmC-32" edge="1">
          <mxGeometry width="50" height="50" relative="1" as="geometry">
            <mxPoint x="130" y="250" as="sourcePoint" />
            <mxPoint x="180" y="200" as="targetPoint" />
          </mxGeometry>
        </mxCell>
        <mxCell id="PuGfcK8MTrgiTfCDIWmC-107" value="" style="endArrow=none;html=1;rounded=0;exitX=1;exitY=0.5;exitDx=0;exitDy=0;entryX=0;entryY=0.5;entryDx=0;entryDy=0;fontStyle=1" parent="1" source="PuGfcK8MTrgiTfCDIWmC-3" target="PuGfcK8MTrgiTfCDIWmC-31" edge="1">
          <mxGeometry width="50" height="50" relative="1" as="geometry">
            <mxPoint x="140" y="260" as="sourcePoint" />
            <mxPoint x="190" y="210" as="targetPoint" />
          </mxGeometry>
        </mxCell>
        <mxCell id="PuGfcK8MTrgiTfCDIWmC-108" value="" style="endArrow=none;html=1;rounded=0;exitX=1;exitY=0.5;exitDx=0;exitDy=0;entryX=0;entryY=0.5;entryDx=0;entryDy=0;fontStyle=1" parent="1" source="PuGfcK8MTrgiTfCDIWmC-2" target="PuGfcK8MTrgiTfCDIWmC-30" edge="1">
          <mxGeometry width="50" height="50" relative="1" as="geometry">
            <mxPoint x="150" y="270" as="sourcePoint" />
            <mxPoint x="200" y="220" as="targetPoint" />
          </mxGeometry>
        </mxCell>
        <mxCell id="PuGfcK8MTrgiTfCDIWmC-109" value="" style="endArrow=none;html=1;rounded=0;exitX=1;exitY=0.5;exitDx=0;exitDy=0;entryX=0;entryY=0.5;entryDx=0;entryDy=0;fontStyle=1" parent="1" source="PuGfcK8MTrgiTfCDIWmC-1" target="PuGfcK8MTrgiTfCDIWmC-29" edge="1">
          <mxGeometry width="50" height="50" relative="1" as="geometry">
            <mxPoint x="160" y="280" as="sourcePoint" />
            <mxPoint x="210" y="230" as="targetPoint" />
          </mxGeometry>
        </mxCell>
        <mxCell id="PuGfcK8MTrgiTfCDIWmC-110" value="" style="endArrow=none;html=1;rounded=0;exitX=1.032;exitY=0.365;exitDx=0;exitDy=0;exitPerimeter=0;entryX=0;entryY=0.5;entryDx=0;entryDy=0;fontStyle=1" parent="1" source="PuGfcK8MTrgiTfCDIWmC-9" target="PuGfcK8MTrgiTfCDIWmC-28" edge="1">
          <mxGeometry width="50" height="50" relative="1" as="geometry">
            <mxPoint x="170" y="290" as="sourcePoint" />
            <mxPoint x="640" y="465" as="targetPoint" />
          </mxGeometry>
        </mxCell>
        <mxCell id="PuGfcK8MTrgiTfCDIWmC-111" value="" style="endArrow=none;html=1;rounded=0;exitX=1;exitY=0.5;exitDx=0;exitDy=0;entryX=0;entryY=0.5;entryDx=0;entryDy=0;fontStyle=1" parent="1" source="PuGfcK8MTrgiTfCDIWmC-10" target="PuGfcK8MTrgiTfCDIWmC-27" edge="1">
          <mxGeometry width="50" height="50" relative="1" as="geometry">
            <mxPoint x="180" y="300" as="sourcePoint" />
            <mxPoint x="670" y="520" as="targetPoint" />
          </mxGeometry>
        </mxCell>
        <mxCell id="PuGfcK8MTrgiTfCDIWmC-112" value="" style="endArrow=none;html=1;rounded=0;exitX=1;exitY=0.5;exitDx=0;exitDy=0;entryX=0;entryY=0.5;entryDx=0;entryDy=0;fontStyle=1" parent="1" source="PuGfcK8MTrgiTfCDIWmC-8" target="PuGfcK8MTrgiTfCDIWmC-26" edge="1">
          <mxGeometry width="50" height="50" relative="1" as="geometry">
            <mxPoint x="190" y="310" as="sourcePoint" />
            <mxPoint x="710" y="570" as="targetPoint" />
          </mxGeometry>
        </mxCell>
        <mxCell id="PuGfcK8MTrgiTfCDIWmC-113" value="" style="endArrow=none;html=1;rounded=0;exitX=1;exitY=0.5;exitDx=0;exitDy=0;entryX=0;entryY=0.5;entryDx=0;entryDy=0;fontStyle=1" parent="1" source="PuGfcK8MTrgiTfCDIWmC-7" target="PuGfcK8MTrgiTfCDIWmC-25" edge="1">
          <mxGeometry width="50" height="50" relative="1" as="geometry">
            <mxPoint x="200" y="320" as="sourcePoint" />
            <mxPoint x="770" y="610" as="targetPoint" />
          </mxGeometry>
        </mxCell>
        <mxCell id="PuGfcK8MTrgiTfCDIWmC-114" value="" style="endArrow=none;html=1;rounded=0;exitX=1;exitY=0.5;exitDx=0;exitDy=0;entryX=0;entryY=0.5;entryDx=0;entryDy=0;fontStyle=1" parent="1" source="PuGfcK8MTrgiTfCDIWmC-6" target="PuGfcK8MTrgiTfCDIWmC-24" edge="1">
          <mxGeometry width="50" height="50" relative="1" as="geometry">
            <mxPoint x="210" y="330" as="sourcePoint" />
            <mxPoint x="260" y="280" as="targetPoint" />
          </mxGeometry>
        </mxCell>
      </root>
    </mxGraphModel>
  </diagram>
</mxfile>
